<svg id="Layer_1" data-name="Layer 1" xmlns="http://www.w3.org/2000/svg" xmlns:xlink="http://www.w3.org/1999/xlink" viewBox="0 0 283.99 189.35"><defs><style>.cls-1{fill:none;}.cls-2{clip-path:url(#clip-path);}.cls-3{fill:url(#linear-gradient);}.cls-4{fill:#0a1e29;}.cls-5{fill:#d6d6d6;}.cls-6{fill:#eb2b00;}.cls-7{fill:url(#linear-gradient-2);}.cls-8{fill:url(#linear-gradient-3);}.cls-12,.cls-13,.cls-9{fill:#fff;}.cls-10{fill:#ff1b21;}.cls-11{fill:#1f1f1f;}.cls-12{fill-rule:evenodd;}.cls-13{stroke:#000;stroke-miterlimit:10;}.cls-14{font-size:12px;font-family:MyriadPro-Regular, Myriad Pro;}.cls-15{letter-spacing:-0.01em;}</style><clipPath id="clip-path" transform="translate(87.29 40.11)"><rect class="cls-1" width="174.97" height="99.99"/></clipPath><linearGradient id="linear-gradient" x1="78.56" y1="149.92" x2="255.45" y2="39.94" gradientUnits="userSpaceOnUse"><stop offset="0" stop-color="#fff"/><stop offset="0.33" stop-color="#f9f9f9"/><stop offset="0.78" stop-color="#e6e6e6"/><stop offset="1" stop-color="#dbdbdb"/></linearGradient><linearGradient id="linear-gradient-2" x1="-2803.58" y1="33.22" x2="-2906.07" y2="-83.52" gradientTransform="matrix(-1, 0, 0, 1, -2726.9, 0)" gradientUnits="userSpaceOnUse"><stop offset="0"/><stop offset="0.2" stop-color="#0d0d0d"/><stop offset="0.56" stop-color="#2f2f2f"/><stop offset="1" stop-color="#606060"/></linearGradient><linearGradient id="linear-gradient-3" x1="255.87" y1="-2868.3" x2="153.39" y2="-2985.04" gradientTransform="matrix(1, 0, 0, -1, -223.14, -2792.38)" xlink:href="#linear-gradient-2"/></defs><title>model1</title><g class="cls-2"><rect class="cls-3" x="81.04" y="33.86" width="187.47" height="112.48"/><path class="cls-4" d="M64.59,50.81" transform="translate(87.29 40.11)"/><path class="cls-4" d="M85.07,23.12" transform="translate(87.29 40.11)"/><path class="cls-5" d="M46.84,2.31c12.15,12.89,13,38,29.76,48.36a39.92,39.92,0,0,0,11.57,4.7h21.59c8.49-2.19,16-7.23,19.92-15.86,9.18-20.09,0-78.38,0-78.38L-13.68-40.11l11.9,28.28C11.37-15.55,34.68-10.59,46.84,2.31Z" transform="translate(87.29 40.11)"/><path class="cls-6" d="M57.57,2.31c12.15,12.89,13,38,29.76,48.36a39.81,39.81,0,0,0,11.57,4.7h21.59c8.49-2.19,16-7.23,19.92-15.86,9.18-20.09,0-78.38,0-78.38L-2.95-40.11,9-11.83C22.1-15.55,45.41-10.59,57.57,2.31Z" transform="translate(87.29 40.11)"/><path class="cls-7" d="M68.73,2.31C80.88,15.2,82.13,39.73,98.49,50.67a38.55,38.55,0,0,0,11,4.7h76.38c13.7-3.09,4.63-8.43,8-15.86,9.18-20.09-7.28-78.38-7.28-78.38L8.21-40.11l11.9,28.28C33.26-15.55,56.57-10.59,68.73,2.31Z" transform="translate(87.29 40.11)"/><path class="cls-5" d="M62.58,106.83c-12.16-12.9-13-38-29.77-48.37a39.79,39.79,0,0,0-11.57-4.69H-.35C-8.84,56-16.33,61-20.27,69.63c-9.18,20.09,0,78.37,0,78.37l143.37,1.24L111.19,121C98,124.69,74.73,119.73,62.58,106.83Z" transform="translate(87.29 40.11)"/><path class="cls-6" d="M51.85,106.83c-12.16-12.9-13-38-29.77-48.37a39.68,39.68,0,0,0-11.57-4.69H-11.07C-19.56,56-27,61-31,69.63-40.17,89.72-31,148-31,148l143.37,1.24L100.46,121C87.32,124.69,64,119.73,51.85,106.83Z" transform="translate(87.29 40.11)"/><path class="cls-8" d="M40.69,106.83c-12.16-12.9-13.4-37.42-29.77-48.37a38.43,38.43,0,0,0-11-4.69H-76.47c-13.71,3.08-4.64,8.43-8,15.86C-93.68,89.72-77.23,148-77.23,148l178.44,1.24L89.3,121C76.16,124.69,52.84,119.73,40.69,106.83Z" transform="translate(87.29 40.11)"/></g><path class="cls-9" d="M113.08,20l-1.39,2.82H111L109.62,20v3.24h-1.15V18.13H110L111.35,21l1.33-2.83h1.55v5.14h-1.15Z" transform="translate(87.29 40.11)"/><path class="cls-9" d="M119.53,23.27l-.48-1.11h-2.16l-.47,1.11h-1.23l2.23-5.14h1.11l2.22,5.14ZM118,19.66l-.65,1.49h1.29Z" transform="translate(87.29 40.11)"/><path class="cls-9" d="M125.89,19.84a1.51,1.51,0,0,1-1,1.59l1.3,1.84H124.8l-1.14-1.64h-.8v1.64h-1.14V18.13h2a2.79,2.79,0,0,1,1.71.4A1.58,1.58,0,0,1,125.89,19.84Zm-1.39.61a.76.76,0,0,0,.22-.61.66.66,0,0,0-.22-.57,1.45,1.45,0,0,0-.77-.16h-.87v1.53h.84A1.2,1.2,0,0,0,124.5,20.45Z" transform="translate(87.29 40.11)"/><path class="cls-9" d="M127.43,18.13h1.15v2.11l1.95-2.11H132l-2,2.27,1,1.38c.47.67.83,1.17,1.07,1.49h-1.34l-1.51-2-.52.58v1.45h-1.15Z" transform="translate(87.29 40.11)"/><path class="cls-9" d="M135.88,23.12a2,2,0,0,1-.8-.51l.17-.28a2,2,0,0,0,.73.47,2.65,2.65,0,0,0,1,.18,1.82,1.82,0,0,0,1.11-.28.88.88,0,0,0,.38-.73.77.77,0,0,0-.2-.55,1.39,1.39,0,0,0-.49-.32c-.2-.07-.47-.15-.8-.23a7,7,0,0,1-.91-.27,1.4,1.4,0,0,1-.58-.41,1.08,1.08,0,0,1-.24-.74,1.23,1.23,0,0,1,.2-.68,1.34,1.34,0,0,1,.61-.5,2.51,2.51,0,0,1,1-.19,3.06,3.06,0,0,1,.84.13,2.46,2.46,0,0,1,.71.34l-.14.3a2.58,2.58,0,0,0-1.41-.43,1.72,1.72,0,0,0-1.08.28.89.89,0,0,0-.37.75.73.73,0,0,0,.2.55,1.31,1.31,0,0,0,.49.32,7.13,7.13,0,0,0,.8.23,7,7,0,0,1,.91.27,1.51,1.51,0,0,1,.57.4,1.07,1.07,0,0,1,.24.73,1.16,1.16,0,0,1-.2.68,1.38,1.38,0,0,1-.62.5,2.6,2.6,0,0,1-1,.18A3,3,0,0,1,135.88,23.12Z" transform="translate(87.29 40.11)"/><path class="cls-9" d="M145.33,23.27V18.86l-2.16,3.73H143l-2.16-3.71v4.39h-.37V18.12h.32l2.3,4,2.31-4h.31v5.15Z" transform="translate(87.29 40.11)"/><path class="cls-9" d="M147.86,18.12h.37v5.15h-.37Z" transform="translate(87.29 40.11)"/><path class="cls-9" d="M151.38,18.46h-1.85v-.34h4.08v.34h-1.85v4.81h-.38Z" transform="translate(87.29 40.11)"/><path class="cls-9" d="M159.11,18.12v5.15h-.38V20.82h-3.44v2.45h-.38V18.12h.38v2.37h3.44V18.12Z" transform="translate(87.29 40.11)"/><path class="cls-9" d="M109,28.74a1.24,1.24,0,0,1-.46-.45,1.31,1.31,0,0,1,0-1.29,1.11,1.11,0,0,1,.47-.44,1.35,1.35,0,0,1,.66-.17,1.42,1.42,0,0,1,.55.11,1.25,1.25,0,0,1,.42.3l-.3.28a.84.84,0,0,0-.65-.29.93.93,0,0,0-.44.11.69.69,0,0,0-.31.3.84.84,0,0,0-.12.45.83.83,0,0,0,.12.44.69.69,0,0,0,.31.3.93.93,0,0,0,.44.11.84.84,0,0,0,.65-.29l.3.28a1.25,1.25,0,0,1-.42.3,1.42,1.42,0,0,1-.55.11A1.47,1.47,0,0,1,109,28.74Z" transform="translate(87.29 40.11)"/><path class="cls-9" d="M111.42,28.76a.86.86,0,0,1-.35-.33.93.93,0,0,1-.13-.5.92.92,0,0,1,.13-.49.86.86,0,0,1,.35-.33,1.14,1.14,0,0,1,1,0,.86.86,0,0,1,.35.33,1,1,0,0,1,0,1,.86.86,0,0,1-.35.33,1.07,1.07,0,0,1-1,0Zm.9-.41a.54.54,0,0,0,.16-.42.57.57,0,0,0-.16-.42.53.53,0,0,0-.39-.16.58.58,0,0,0-.4.16.6.6,0,0,0-.15.42.57.57,0,0,0,.15.42.54.54,0,0,0,.4.16A.5.5,0,0,0,112.32,28.35Z" transform="translate(87.29 40.11)"/><path class="cls-9" d="M113.45,27.71h1v.37h-1Z" transform="translate(87.29 40.11)"/><path class="cls-9" d="M115.55,26.81v.74h1.17v.38h-1.17v.93h-.45V26.43h1.77v.38Z" transform="translate(87.29 40.11)"/><path class="cls-9" d="M117.72,28.76a1,1,0,0,1-.36-.33,1,1,0,0,1-.12-.5,1,1,0,0,1,.12-.49,1,1,0,0,1,.36-.33,1.06,1.06,0,0,1,.5-.12,1.07,1.07,0,0,1,.51.12.89.89,0,0,1,.36.33,1,1,0,0,1,.12.49,1,1,0,0,1-.12.5.89.89,0,0,1-.36.33,1,1,0,0,1-.51.13A1,1,0,0,1,117.72,28.76Zm.9-.41a.57.57,0,0,0,.16-.42.61.61,0,0,0-.16-.42.56.56,0,0,0-.4-.16.53.53,0,0,0-.39.16.61.61,0,0,0-.16.42.57.57,0,0,0,.16.42.5.5,0,0,0,.39.16A.52.52,0,0,0,118.62,28.35Z" transform="translate(87.29 40.11)"/><path class="cls-9" d="M121.6,27v1.85h-.41v-.23a.83.83,0,0,1-.26.19,1,1,0,0,1-.34.07.73.73,0,0,1-.8-.82V27h.44v1a.51.51,0,0,0,.11.37.41.41,0,0,0,.32.12.48.48,0,0,0,.37-.14.61.61,0,0,0,.14-.42V27Z" transform="translate(87.29 40.11)"/><path class="cls-9" d="M124,27.19a.82.82,0,0,1,.21.61v1.06h-.43v-1a.49.49,0,0,0-.12-.36.41.41,0,0,0-.32-.13.49.49,0,0,0-.38.15.56.56,0,0,0-.14.41v.94h-.43V27h.41v.24a.68.68,0,0,1,.27-.2,1.06,1.06,0,0,1,.37-.06A.76.76,0,0,1,124,27.19Z" transform="translate(87.29 40.11)"/><path class="cls-9" d="M126.73,26.28v2.58h-.41v-.24a.6.6,0,0,1-.27.2,1,1,0,0,1-.83-.05.83.83,0,0,1-.33-.34.91.91,0,0,1-.13-.5.9.9,0,0,1,.13-.49.83.83,0,0,1,.33-.34,1,1,0,0,1,.48-.11.9.9,0,0,1,.34.06.61.61,0,0,1,.26.19v-1ZM126,28.44a.41.41,0,0,0,.19-.2.62.62,0,0,0,.08-.31.61.61,0,0,0-.08-.3.48.48,0,0,0-.19-.21.69.69,0,0,0-.29-.07.68.68,0,0,0-.28.07.58.58,0,0,0-.2.21.73.73,0,0,0-.07.3.74.74,0,0,0,.07.31.48.48,0,0,0,.2.2.55.55,0,0,0,.28.07A.57.57,0,0,0,126,28.44Z" transform="translate(87.29 40.11)"/><path class="cls-9" d="M129.22,28.07h-1.46a.48.48,0,0,0,.2.33.65.65,0,0,0,.4.12.69.69,0,0,0,.5-.2l.24.26a.82.82,0,0,1-.32.23,1.18,1.18,0,0,1-.43.08,1.08,1.08,0,0,1-.54-.13,1,1,0,0,1-.36-.33,1,1,0,0,1-.13-.5,1,1,0,0,1,.13-.48.8.8,0,0,1,.34-.34,1,1,0,0,1,.49-.12,1,1,0,0,1,.49.12.87.87,0,0,1,.33.33,1,1,0,0,1,.12.5Zm-1.29-.61a.53.53,0,0,0-.17.32h1a.53.53,0,0,0-.17-.32.5.5,0,0,0-.36-.13A.49.49,0,0,0,127.93,27.46Z" transform="translate(87.29 40.11)"/><path class="cls-9" d="M130.89,27v.41h-.1a.54.54,0,0,0-.4.15.59.59,0,0,0-.14.42v.9h-.44V27h.42v.27A.7.7,0,0,1,130.89,27Z" transform="translate(87.29 40.11)"/><path class="cls-9" d="M134.67,27.82a.66.66,0,0,1,.11.38.56.56,0,0,1-.24.49,1.26,1.26,0,0,1-.71.17h-1.21V26.43h1.14a1.16,1.16,0,0,1,.67.17.54.54,0,0,1,.23.46.57.57,0,0,1-.09.32.58.58,0,0,1-.22.22A.6.6,0,0,1,134.67,27.82Zm-1.6-1v.67h.64a.66.66,0,0,0,.37-.08.32.32,0,0,0,0-.5.65.65,0,0,0-.37-.09Zm1.26,1.38c0-.24-.18-.35-.53-.35h-.73v.7h.73C134.15,28.51,134.33,28.39,134.33,28.16Z" transform="translate(87.29 40.11)"/><path class="cls-9" d="M136.47,27v.41h-.1a.5.5,0,0,0-.39.15.55.55,0,0,0-.15.42v.9h-.43V27h.41v.27A.72.72,0,0,1,136.47,27Z" transform="translate(87.29 40.11)"/><path class="cls-9" d="M138.34,27.18a.78.78,0,0,1,.22.59v1.09h-.41v-.22a.52.52,0,0,1-.23.18,1,1,0,0,1-.72,0,.54.54,0,0,1-.24-.2.5.5,0,0,1-.09-.29.47.47,0,0,1,.19-.4.92.92,0,0,1,.58-.15h.48v0a.41.41,0,0,0-.11-.3.52.52,0,0,0-.35-.1.84.84,0,0,0-.31,0,.66.66,0,0,0-.25.13l-.17-.32a1,1,0,0,1,.35-.17,1.54,1.54,0,0,1,.43-.05A.9.9,0,0,1,138.34,27.18Zm-.4,1.31a.34.34,0,0,0,.18-.21v-.21h-.45c-.25,0-.37.08-.37.24a.23.23,0,0,0,.09.19.42.42,0,0,0,.26.07A.55.55,0,0,0,137.94,28.49Z" transform="translate(87.29 40.11)"/><path class="cls-9" d="M140.9,27.19a.82.82,0,0,1,.21.61v1.06h-.43v-1a.53.53,0,0,0-.11-.36.45.45,0,0,0-.33-.13.49.49,0,0,0-.38.15.56.56,0,0,0-.14.41v.94h-.43V27h.41v.24a.68.68,0,0,1,.27-.2,1.06,1.06,0,0,1,.37-.06A.76.76,0,0,1,140.9,27.19Z" transform="translate(87.29 40.11)"/><path class="cls-9" d="M143.68,26.28v2.58h-.42v-.24a.6.6,0,0,1-.27.2,1,1,0,0,1-.35.07,1,1,0,0,1-.48-.12.83.83,0,0,1-.33-.34,1,1,0,0,1-.12-.5,1,1,0,0,1,.12-.49.83.83,0,0,1,.33-.34,1,1,0,0,1,.48-.11.9.9,0,0,1,.34.06.61.61,0,0,1,.26.19v-1Zm-.7,2.16a.48.48,0,0,0,.2-.2.62.62,0,0,0,.07-.31.6.6,0,0,0-.07-.3.58.58,0,0,0-.2-.21.68.68,0,0,0-.28-.07.69.69,0,0,0-.29.07.55.55,0,0,0-.19.21.61.61,0,0,0-.08.3.62.62,0,0,0,.08.31.46.46,0,0,0,.19.2.57.57,0,0,0,.29.07A.55.55,0,0,0,143,28.44Z" transform="translate(87.29 40.11)"/><path class="cls-9" d="M147.76,26.43v2.43h-.37L146,27.21v1.65h-.44V26.43H146l1.34,1.65V26.43Z" transform="translate(87.29 40.11)"/><path class="cls-9" d="M149.88,27.18a.78.78,0,0,1,.22.59v1.09h-.41v-.22a.52.52,0,0,1-.23.18,1,1,0,0,1-.72,0,.54.54,0,0,1-.24-.2.5.5,0,0,1-.09-.29.47.47,0,0,1,.19-.4.92.92,0,0,1,.58-.15h.48v0a.38.38,0,0,0-.12-.3.48.48,0,0,0-.34-.1.81.81,0,0,0-.31,0,.66.66,0,0,0-.25.13l-.17-.32a1,1,0,0,1,.35-.17,1.49,1.49,0,0,1,.43-.05A.93.93,0,0,1,149.88,27.18Zm-.4,1.31a.34.34,0,0,0,.18-.21v-.21h-.45c-.25,0-.37.08-.37.24a.23.23,0,0,0,.09.19.4.4,0,0,0,.26.07A.55.55,0,0,0,149.48,28.49Z" transform="translate(87.29 40.11)"/><path class="cls-9" d="M153.72,27.19a.81.81,0,0,1,.21.61v1.06h-.44v-1a.53.53,0,0,0-.1-.36.42.42,0,0,0-.31-.13.43.43,0,0,0-.35.15.56.56,0,0,0-.14.41v.94h-.43v-1a.53.53,0,0,0-.11-.36.39.39,0,0,0-.31-.13.44.44,0,0,0-.35.15.56.56,0,0,0-.13.41v.94h-.43V27h.41v.23a.73.73,0,0,1,.26-.19,1,1,0,0,1,.35-.06.87.87,0,0,1,.37.07.61.61,0,0,1,.25.23.84.84,0,0,1,.3-.22.87.87,0,0,1,.4-.08A.72.72,0,0,1,153.72,27.19Z" transform="translate(87.29 40.11)"/><path class="cls-9" d="M156.41,28.07H155a.48.48,0,0,0,.2.33.65.65,0,0,0,.4.12.69.69,0,0,0,.5-.2l.24.26a.82.82,0,0,1-.32.23,1.18,1.18,0,0,1-.43.08,1,1,0,0,1-.54-.13.83.83,0,0,1-.36-.33.93.93,0,0,1-.13-.5.86.86,0,0,1,.13-.48.8.8,0,0,1,.34-.34,1,1,0,0,1,.49-.12,1,1,0,0,1,.49.12.87.87,0,0,1,.33.33,1,1,0,0,1,.12.5A.66.66,0,0,1,156.41,28.07Zm-1.28-.61a.54.54,0,0,0-.18.32H156a.53.53,0,0,0-.17-.32.52.52,0,0,0-.36-.13A.49.49,0,0,0,155.13,27.46Z" transform="translate(87.29 40.11)"/><rect class="cls-9" x="203.72" y="72.96" width="42.38" height="0.57"/><rect class="cls-10" x="195.42" y="72.58" width="8.84" height="1.33"/><rect class="cls-6" x="242.68" y="101.47" width="8.14" height="32.64" rx="3.9"/><path class="cls-11" d="M110.76,74.38H110v.72h-.43v-.72h-.72V74h.72v-.71H110V74h.73Z" transform="translate(87.29 40.11)"/><path class="cls-11" d="M112,75.47a1.18,1.18,0,0,1-.43-.5,1.89,1.89,0,0,1-.15-.79,1.92,1.92,0,0,1,.15-.79,1.18,1.18,0,0,1,.43-.5,1.18,1.18,0,0,1,1.22,0,1.18,1.18,0,0,1,.43.5,1.92,1.92,0,0,1,.15.79,1.89,1.89,0,0,1-.15.79,1.18,1.18,0,0,1-.43.5,1.12,1.12,0,0,1-1.22,0Zm1.09-.54a1.26,1.26,0,0,0,.18-.75,1.3,1.3,0,0,0-.18-.75.59.59,0,0,0-1,0,1.3,1.3,0,0,0-.18.75,1.26,1.26,0,0,0,.18.75.57.57,0,0,0,1,0Z" transform="translate(87.29 40.11)"/><path class="cls-11" d="M114.94,75.47a1.1,1.1,0,0,1-.42-.5,1.74,1.74,0,0,1-.16-.79,1.77,1.77,0,0,1,.16-.79,1.1,1.1,0,0,1,.42-.5,1.14,1.14,0,0,1,1.65.5,1.92,1.92,0,0,1,.15.79,1.89,1.89,0,0,1-.15.79,1.13,1.13,0,0,1-1.65.5Zm1.09-.54a1.26,1.26,0,0,0,.18-.75,1.3,1.3,0,0,0-.18-.75.53.53,0,0,0-.48-.25.56.56,0,0,0-.48.25,1.39,1.39,0,0,0-.17.75,1.34,1.34,0,0,0,.17.75.56.56,0,0,0,.48.26A.54.54,0,0,0,116,74.93Z" transform="translate(87.29 40.11)"/><path class="cls-11" d="M119.62,72.76v2.85h-.53V73.2h-.6v-.44Z" transform="translate(87.29 40.11)"/><path class="cls-11" d="M122.45,75.16v.45h-2.1v-.36l1.13-1.07a1.1,1.1,0,0,0,.26-.32.54.54,0,0,0,.07-.27.36.36,0,0,0-.13-.31.66.66,0,0,0-.4-.1.83.83,0,0,0-.67.29l-.37-.28a1.06,1.06,0,0,1,.45-.35,1.62,1.62,0,0,1,.64-.12,1.14,1.14,0,0,1,.74.22.71.71,0,0,1,.27.59,1.08,1.08,0,0,1-.09.44,1.61,1.61,0,0,1-.38.46l-.76.73Z" transform="translate(87.29 40.11)"/><path class="cls-11" d="M124.78,74.2a.77.77,0,0,1,.21.55.85.85,0,0,1-.13.45.83.83,0,0,1-.38.33,1.46,1.46,0,0,1-.62.12,1.92,1.92,0,0,1-.59-.09,1.54,1.54,0,0,1-.48-.24l.23-.41a1.18,1.18,0,0,0,.37.2,1.44,1.44,0,0,0,.46.08.7.7,0,0,0,.44-.12.36.36,0,0,0,.16-.31.38.38,0,0,0-.15-.32.83.83,0,0,0-.47-.11h-.26V74l.65-.77h-1.29v-.44h1.94v.35l-.69.82A1,1,0,0,1,124.78,74.2Z" transform="translate(87.29 40.11)"/><path class="cls-11" d="M128.08,75h-.51v.65h-.51V75H125.5v-.37l1.4-1.83h.57l-1.33,1.75h.93v-.57h.5v.57h.51Z" transform="translate(87.29 40.11)"/><path class="cls-11" d="M131.61,74.09a.77.77,0,0,1,.29.64.94.94,0,0,1-.12.47,1,1,0,0,1-.38.33,1.46,1.46,0,0,1-.62.12,1.92,1.92,0,0,1-.59-.09,1.72,1.72,0,0,1-.49-.24l.23-.41a1.24,1.24,0,0,0,.38.2,1.44,1.44,0,0,0,.46.08.74.74,0,0,0,.44-.12.36.36,0,0,0,.16-.32.38.38,0,0,0-.17-.33,1.14,1.14,0,0,0-.6-.11h-.68l.14-1.55h1.68v.44h-1.23l-.06.66h.27A1.44,1.44,0,0,1,131.61,74.09Z" transform="translate(87.29 40.11)"/><path class="cls-11" d="M134.36,75.61l-.77-1.09-.77,1.09h-.6l1.06-1.46-1-1.39h.6l.73,1,.72-1h.57l-1,1.37L135,75.61Z" transform="translate(87.29 40.11)"/><path class="cls-11" d="M137.33,75.61l-.78-1.09-.76,1.09h-.6l1.05-1.46-1-1.39h.6l.73,1,.72-1h.57l-1,1.37,1.07,1.48Z" transform="translate(87.29 40.11)"/><path class="cls-11" d="M140.29,75.61l-.77-1.09-.77,1.09h-.6l1.06-1.46-1-1.39h.6l.72,1,.72-1h.58l-1,1.37,1.07,1.48Z" transform="translate(87.29 40.11)"/><path class="cls-11" d="M144.52,73.08a1.59,1.59,0,0,1,.32,1,1.71,1.71,0,0,1-.18.82,1.18,1.18,0,0,1-.49.52,1.44,1.44,0,0,1-.73.18,1.84,1.84,0,0,1-.41-.05,1.16,1.16,0,0,1-.34-.14l.2-.39a1,1,0,0,0,.54.13.81.81,0,0,0,.64-.25,1,1,0,0,0,.24-.73h0a.83.83,0,0,1-.33.22,1.22,1.22,0,0,1-.94,0,.81.81,0,0,1-.35-.31.8.8,0,0,1-.13-.46.88.88,0,0,1,.14-.49.92.92,0,0,1,.38-.32,1.12,1.12,0,0,1,.53-.11A1.17,1.17,0,0,1,144.52,73.08Zm-.46.88a.46.46,0,0,0,0-.69.66.66,0,0,0-.44-.14.58.58,0,0,0-.4.13.45.45,0,0,0-.15.35.46.46,0,0,0,.15.36.71.71,0,0,0,.83,0Z" transform="translate(87.29 40.11)"/><path class="cls-11" d="M146,75.47a1.1,1.1,0,0,1-.42-.5,1.74,1.74,0,0,1-.16-.79,1.77,1.77,0,0,1,.16-.79,1.1,1.1,0,0,1,.42-.5,1.18,1.18,0,0,1,1.22,0,1.12,1.12,0,0,1,.43.5,1.92,1.92,0,0,1,.15.79,1.89,1.89,0,0,1-.15.79,1.12,1.12,0,0,1-.43.5,1.12,1.12,0,0,1-1.22,0Zm1.09-.54a1.26,1.26,0,0,0,.18-.75,1.3,1.3,0,0,0-.18-.75.59.59,0,0,0-1,0,1.3,1.3,0,0,0-.17.75,1.26,1.26,0,0,0,.17.75.57.57,0,0,0,1,0Z" transform="translate(87.29 40.11)"/><path class="cls-11" d="M149.31,72.76v2.85h-.53V73.2h-.6v-.44Z" transform="translate(87.29 40.11)"/><path class="cls-11" d="M152.14,75.16v.45H150v-.36l1.14-1.07a1.22,1.22,0,0,0,.25-.32.54.54,0,0,0,.07-.27.36.36,0,0,0-.13-.31.66.66,0,0,0-.4-.1.83.83,0,0,0-.67.29l-.37-.28a1.06,1.06,0,0,1,.45-.35,1.62,1.62,0,0,1,.64-.12,1.14,1.14,0,0,1,.74.22.71.71,0,0,1,.27.59,1.08,1.08,0,0,1-.09.44,1.61,1.61,0,0,1-.38.46l-.76.73Z" transform="translate(87.29 40.11)"/><path class="cls-9" d="M159,73.61c.22-.26,0-.59-.16-.82s-.21-.31-.38-.34-.31.16-.42.26a1.26,1.26,0,0,0-.41.89s0,.11,0,.05a2.47,2.47,0,0,0,.13.6,2.21,2.21,0,0,0,.27.53,4.64,4.64,0,0,0,.81,1,2.4,2.4,0,0,0,1.07.61,1.26,1.26,0,0,0,1.07-.25c.11-.09.31-.22.32-.38s-.12-.28-.23-.38-.56-.54-.88-.29c-.12.1-.25.28-.41.31a.63.63,0,0,1-.44-.19,2.72,2.72,0,0,1-.67-.8.45.45,0,0,1,0-.45C158.7,73.79,158.87,73.73,159,73.61Z" transform="translate(87.29 40.11)"/><path class="cls-11" d="M94.83,64.69v2.85H94.3v-2.4h-.6v-.45Z" transform="translate(87.29 40.11)"/><path class="cls-11" d="M97.67,67.1v.44H95.56v-.35l1.14-1.08A1.2,1.2,0,0,0,97,65.8a.6.6,0,0,0,.07-.27.36.36,0,0,0-.13-.31.64.64,0,0,0-.4-.11.81.81,0,0,0-.67.3l-.37-.28a1.19,1.19,0,0,1,.45-.35,1.62,1.62,0,0,1,.64-.13,1.21,1.21,0,0,1,.74.22.75.75,0,0,1,.28.6,1.09,1.09,0,0,1-.1.44,1.75,1.75,0,0,1-.38.46l-.76.73Z" transform="translate(87.29 40.11)"/><path class="cls-11" d="M100,66.14a.83.83,0,0,1,.08,1,.81.81,0,0,1-.38.32,1.46,1.46,0,0,1-.62.12,2,2,0,0,1-.59-.08,1.54,1.54,0,0,1-.48-.24l.23-.42a1.12,1.12,0,0,0,.37.21,1.43,1.43,0,0,0,.46.07A.7.7,0,0,0,99.5,67a.36.36,0,0,0,.16-.32.37.37,0,0,0-.15-.31.82.82,0,0,0-.46-.11h-.27v-.36l.65-.77H98.14v-.45h1.94v.36l-.69.82A.94.94,0,0,1,100,66.14Z" transform="translate(87.29 40.11)"/><path class="cls-11" d="M102.28,64.69h1.24a1.73,1.73,0,0,1,.81.18,1.34,1.34,0,0,1,.55.5,1.51,1.51,0,0,1,0,1.5,1.34,1.34,0,0,1-.55.5,1.73,1.73,0,0,1-.81.17h-1.24Zm1.22,2.41a1.2,1.2,0,0,0,.55-.12.89.89,0,0,0,.37-.35,1,1,0,0,0,.13-.51,1.08,1.08,0,0,0-.13-.52.94.94,0,0,0-.37-.34,1.2,1.2,0,0,0-.55-.12h-.69v2Z" transform="translate(87.29 40.11)"/><path class="cls-11" d="M107.9,65.37v2.17h-.48v-.27a.87.87,0,0,1-.31.22.85.85,0,0,1-.39.08,1,1,0,0,1-.69-.24.94.94,0,0,1-.25-.72V65.37h.51v1.17a.63.63,0,0,0,.13.44.48.48,0,0,0,.38.14.57.57,0,0,0,.43-.16.69.69,0,0,0,.16-.49v-1.1Z" transform="translate(87.29 40.11)"/><path class="cls-11" d="M112.17,65.58a1,1,0,0,1,.24.72v1.24h-.51V66.36a.61.61,0,0,0-.13-.43.46.46,0,0,0-.36-.14A.53.53,0,0,0,111,66a.69.69,0,0,0-.15.48v1.1h-.51V66.36a.67.67,0,0,0-.13-.43.46.46,0,0,0-.36-.14.56.56,0,0,0-.42.17.69.69,0,0,0-.15.48v1.1h-.51V65.37h.49v.28a.76.76,0,0,1,.3-.23,1.1,1.1,0,0,1,.41-.07,1,1,0,0,1,.43.09.66.66,0,0,1,.3.27.94.94,0,0,1,.35-.27,1.19,1.19,0,0,1,.47-.09A.92.92,0,0,1,112.17,65.58Z" transform="translate(87.29 40.11)"/><path class="cls-11" d="M116.66,65.58a1,1,0,0,1,.24.72v1.24h-.51V66.36a.67.67,0,0,0-.12-.43.5.5,0,0,0-.37-.14.53.53,0,0,0-.41.17.69.69,0,0,0-.15.48v1.1h-.51V66.36a.61.61,0,0,0-.13-.43.46.46,0,0,0-.36-.14.52.52,0,0,0-.41.17.65.65,0,0,0-.16.48v1.1h-.51V65.37h.49v.28a.76.76,0,0,1,.3-.23,1.1,1.1,0,0,1,.41-.07,1,1,0,0,1,.43.09.66.66,0,0,1,.3.27.94.94,0,0,1,.35-.27,1.19,1.19,0,0,1,.47-.09A.92.92,0,0,1,116.66,65.58Z" transform="translate(87.29 40.11)"/><path class="cls-11" d="M119.75,65.37l-1,2.35a1.1,1.1,0,0,1-.34.5,1,1,0,0,1-.82.09.74.74,0,0,1-.26-.15l.2-.37a.78.78,0,0,0,.18.11.45.45,0,0,0,.2,0,.32.32,0,0,0,.22-.07.62.62,0,0,0,.16-.23l0-.09-1-2.18h.53l.68,1.61.69-1.61Z" transform="translate(87.29 40.11)"/><path class="cls-11" d="M120.54,67a.33.33,0,0,1,.09.25.62.62,0,0,1,0,.13s0,.12-.08.21l-.21.58H120l.17-.62a.44.44,0,0,1-.15-.12.35.35,0,0,1,0-.18.34.34,0,0,1,.1-.25.32.32,0,0,1,.23-.09A.32.32,0,0,1,120.54,67Z" transform="translate(87.29 40.11)"/><path class="cls-11" d="M122.71,64.69h.53V67.1h1.49v.44h-2Z" transform="translate(87.29 40.11)"/><path class="cls-11" d="M125.67,67.43a1,1,0,0,1-.42-.4,1.18,1.18,0,0,1,0-1.15,1,1,0,0,1,.42-.39,1.15,1.15,0,0,1,.59-.14,1.21,1.21,0,0,1,.6.14,1,1,0,0,1,.41.39,1.18,1.18,0,0,1,0,1.15,1,1,0,0,1-.41.4,1.21,1.21,0,0,1-.6.14A1.15,1.15,0,0,1,125.67,67.43Zm1.06-.48a.67.67,0,0,0,.18-.49.7.7,0,0,0-.18-.5.66.66,0,0,0-.47-.18.62.62,0,0,0-.46.18.7.7,0,0,0-.18.5.67.67,0,0,0,.18.49.59.59,0,0,0,.46.19A.63.63,0,0,0,126.73,67Z" transform="translate(87.29 40.11)"/><path class="cls-11" d="M129.37,65.35v.48h-.12a.64.64,0,0,0-.46.17.7.7,0,0,0-.17.5v1.05h-.51V65.37h.49v.32A.83.83,0,0,1,129.37,65.35Z" transform="translate(87.29 40.11)"/><path class="cls-11" d="M132,66.62h-1.7a.56.56,0,0,0,.23.38.79.79,0,0,0,.47.14.81.81,0,0,0,.59-.23l.27.31a.83.83,0,0,1-.37.26,1.35,1.35,0,0,1-.5.09,1.27,1.27,0,0,1-.63-.14A.91.91,0,0,1,130,67a1.1,1.1,0,0,1-.15-.57,1.07,1.07,0,0,1,.14-.57,1,1,0,0,1,.4-.4,1.13,1.13,0,0,1,.58-.14,1.1,1.1,0,0,1,.57.14.92.92,0,0,1,.39.39,1.25,1.25,0,0,1,.14.59A.92.92,0,0,1,132,66.62Zm-1.5-.72a.58.58,0,0,0-.21.38h1.24a.64.64,0,0,0-.2-.38.62.62,0,0,0-.42-.15A.59.59,0,0,0,130.52,65.9Z" transform="translate(87.29 40.11)"/><path class="cls-11" d="M136.12,65.58a1,1,0,0,1,.24.72v1.24h-.51V66.36a.61.61,0,0,0-.13-.43.46.46,0,0,0-.36-.14A.53.53,0,0,0,135,66a.69.69,0,0,0-.16.48v1.1h-.5V66.36a.67.67,0,0,0-.13-.43.47.47,0,0,0-.36-.14.56.56,0,0,0-.42.17.69.69,0,0,0-.15.48v1.1h-.51V65.37h.49v.28a.76.76,0,0,1,.3-.23,1.07,1.07,0,0,1,.41-.07,1,1,0,0,1,.43.09.66.66,0,0,1,.3.27.94.94,0,0,1,.35-.27,1.19,1.19,0,0,1,.47-.09A.92.92,0,0,1,136.12,65.58Z" transform="translate(87.29 40.11)"/><path class="cls-11" d="M138.59,64.69h.53v2.85h-.53Z" transform="translate(87.29 40.11)"/><path class="cls-11" d="M141.82,65.48a1.21,1.21,0,0,1,.39.39,1.25,1.25,0,0,1,.14.59,1.21,1.21,0,0,1-.14.58,1,1,0,0,1-.39.39,1.1,1.1,0,0,1-.57.14.87.87,0,0,1-.7-.29v1H140v-3h.49v.29a.73.73,0,0,1,.31-.24,1.07,1.07,0,0,1,.41-.07A1.2,1.2,0,0,1,141.82,65.48ZM141.65,67a.67.67,0,0,0,.18-.49.7.7,0,0,0-.18-.5.62.62,0,0,0-.46-.18.73.73,0,0,0-.33.08.66.66,0,0,0-.23.24.69.69,0,0,0-.09.36.74.74,0,0,0,.09.36.57.57,0,0,0,.23.23.63.63,0,0,0,.33.09A.59.59,0,0,0,141.65,67Z" transform="translate(87.29 40.11)"/><path class="cls-11" d="M143.19,67.5a1.24,1.24,0,0,1-.4-.17l.2-.39a1,1,0,0,0,.35.16,1.44,1.44,0,0,0,.4.06c.31,0,.46-.08.46-.24a.16.16,0,0,0-.12-.16,2,2,0,0,0-.37-.09,3.06,3.06,0,0,1-.44-.09.7.7,0,0,1-.29-.19.51.51,0,0,1-.12-.36.58.58,0,0,1,.25-.5,1.23,1.23,0,0,1,.7-.18,1.73,1.73,0,0,1,.45.05,1.44,1.44,0,0,1,.37.13l-.2.39a1.17,1.17,0,0,0-.62-.16.77.77,0,0,0-.34.06.21.21,0,0,0-.12.18.17.17,0,0,0,.13.17,1.55,1.55,0,0,0,.38.1l.43.09a.79.79,0,0,1,.29.18.52.52,0,0,1,.12.36.57.57,0,0,1-.27.49,1.24,1.24,0,0,1-.72.18A1.81,1.81,0,0,1,143.19,67.5Z" transform="translate(87.29 40.11)"/><path class="cls-11" d="M147.45,65.37v2.17H147v-.27a.84.84,0,0,1-.3.22.92.92,0,0,1-.4.08,1,1,0,0,1-.69-.24,1,1,0,0,1-.25-.72V65.37h.51v1.17A.63.63,0,0,0,146,67a.45.45,0,0,0,.37.14.6.6,0,0,0,.44-.16.74.74,0,0,0,.16-.49v-1.1Z" transform="translate(87.29 40.11)"/><path class="cls-11" d="M151.71,65.58a1,1,0,0,1,.24.72v1.24h-.51V66.36a.67.67,0,0,0-.12-.43.49.49,0,0,0-.36-.14.56.56,0,0,0-.42.17.69.69,0,0,0-.15.48v1.1h-.51V66.36a.61.61,0,0,0-.13-.43.46.46,0,0,0-.36-.14A.53.53,0,0,0,149,66a.69.69,0,0,0-.15.48v1.1h-.51V65.37h.48v.28a.72.72,0,0,1,.31-.23,1.15,1.15,0,0,1,.84,0,.77.77,0,0,1,.3.27.91.91,0,0,1,.34-.27,1.19,1.19,0,0,1,.47-.09A.9.9,0,0,1,151.71,65.58Z" transform="translate(87.29 40.11)"/><path class="cls-9" d="M161,65.73a1.56,1.56,0,1,0-3.11,0,1.49,1.49,0,0,0,.27.86h0l1.28,1.93,1.3-1.94h0A1.56,1.56,0,0,0,161,65.73Zm-1.56.86a.87.87,0,1,1,.87-.86A.86.86,0,0,1,159.42,66.59Z" transform="translate(87.29 40.11)"/><path class="cls-11" d="M107.38,87.77l-.8,2.18h-.49l-.56-1.5L105,90h-.49l-.8-2.18h.48l.58,1.6.59-1.6h.43l.59,1.61.59-1.61Z" transform="translate(87.29 40.11)"/><path class="cls-11" d="M111.28,87.77l-.8,2.18H110l-.56-1.5-.57,1.5h-.49l-.8-2.18h.49l.57,1.6.6-1.6h.43l.58,1.61.59-1.61Z" transform="translate(87.29 40.11)"/><path class="cls-11" d="M115.19,87.77l-.8,2.18h-.49l-.56-1.5-.57,1.5h-.49l-.8-2.18H112l.57,1.6.6-1.6h.43l.59,1.61.59-1.61Z" transform="translate(87.29 40.11)"/><path class="cls-11" d="M120.46,87.77l-.8,2.18h-.49l-.56-1.5L118,90h-.49l-.8-2.18h.48l.58,1.6.6-1.6h.42l.59,1.61.59-1.61Z" transform="translate(87.29 40.11)"/><path class="cls-11" d="M123,89h-1.71a.58.58,0,0,0,.24.38.77.77,0,0,0,.47.14.82.82,0,0,0,.59-.23l.27.31a.89.89,0,0,1-.37.26,1.35,1.35,0,0,1-.5.09,1.27,1.27,0,0,1-.63-.14,1,1,0,0,1-.43-.4,1.1,1.1,0,0,1-.14-.57,1.07,1.07,0,0,1,.14-.57,1,1,0,0,1,.4-.4,1.13,1.13,0,0,1,.58-.14,1.1,1.1,0,0,1,.57.14,1,1,0,0,1,.39.39,1.25,1.25,0,0,1,.14.59A.86.86,0,0,1,123,89Zm-1.5-.72a.58.58,0,0,0-.21.38h1.23a.57.57,0,0,0-.2-.38.64.64,0,0,0-.82,0Z" transform="translate(87.29 40.11)"/><path class="cls-11" d="M125.46,87.88a1.1,1.1,0,0,1,.4.4,1.18,1.18,0,0,1,.14.58,1.21,1.21,0,0,1-.14.58,1,1,0,0,1-.4.39,1,1,0,0,1-.56.14,1.07,1.07,0,0,1-.41-.07.74.74,0,0,1-.31-.24V90h-.49v-3h.51V88a1,1,0,0,1,.31-.21,1,1,0,0,1,.39-.07A1.13,1.13,0,0,1,125.46,87.88Zm-.16,1.47a.67.67,0,0,0,.18-.49.7.7,0,0,0-.18-.5.62.62,0,0,0-.46-.18.73.73,0,0,0-.33.08.59.59,0,0,0-.23.24.69.69,0,0,0-.09.36.74.74,0,0,0,.09.36.51.51,0,0,0,.23.23.63.63,0,0,0,.33.09A.59.59,0,0,0,125.3,89.35Z" transform="translate(87.29 40.11)"/><path class="cls-11" d="M126.84,89.9a1.15,1.15,0,0,1-.4-.17l.19-.39a1.19,1.19,0,0,0,.36.16,1.39,1.39,0,0,0,.4.06c.31,0,.46-.08.46-.24a.16.16,0,0,0-.12-.16,2.21,2.21,0,0,0-.37-.09,2,2,0,0,1-.44-.09.7.7,0,0,1-.29-.19.51.51,0,0,1-.13-.36.59.59,0,0,1,.26-.5,1.23,1.23,0,0,1,.7-.18,1.73,1.73,0,0,1,.45,0,1.44,1.44,0,0,1,.37.13l-.2.39a1.17,1.17,0,0,0-.62-.16.74.74,0,0,0-.34.06.21.21,0,0,0-.12.18.19.19,0,0,0,.13.18,2.39,2.39,0,0,0,.38.09l.43.09a.88.88,0,0,1,.29.18.52.52,0,0,1,.12.36.57.57,0,0,1-.27.49,1.28,1.28,0,0,1-.72.18A1.81,1.81,0,0,1,126.84,89.9Z" transform="translate(87.29 40.11)"/><path class="cls-11" d="M129,87.33a.31.31,0,0,1-.09-.22.29.29,0,0,1,.09-.22.32.32,0,0,1,.23-.09.38.38,0,0,1,.24.08.29.29,0,0,1,.09.21.32.32,0,0,1-.09.23.32.32,0,0,1-.24.09A.36.36,0,0,1,129,87.33Zm0,.44h.51V90H129Z" transform="translate(87.29 40.11)"/><path class="cls-11" d="M131.68,89.83a.76.76,0,0,1-.22.11,1.24,1.24,0,0,1-.27,0,.8.8,0,0,1-.56-.18.74.74,0,0,1-.19-.55v-1h-.36v-.4h.36v-.5H131v.5h.58v.4H131v1a.36.36,0,0,0,.07.24.3.3,0,0,0,.23.08.43.43,0,0,0,.28-.09Z" transform="translate(87.29 40.11)"/><path class="cls-11" d="M134.26,89h-1.7a.53.53,0,0,0,.23.38.79.79,0,0,0,.47.14.82.82,0,0,0,.59-.23l.27.31a.89.89,0,0,1-.37.26,1.35,1.35,0,0,1-.5.09,1.27,1.27,0,0,1-.63-.14,1,1,0,0,1-.43-.4,1.2,1.2,0,0,1-.14-.57,1.07,1.07,0,0,1,.14-.57,1,1,0,0,1,.4-.4,1.13,1.13,0,0,1,.58-.14,1.1,1.1,0,0,1,.57.14,1,1,0,0,1,.39.39,1.25,1.25,0,0,1,.14.59A.86.86,0,0,1,134.26,89Zm-1.5-.72a.58.58,0,0,0-.21.38h1.23a.6.6,0,0,0-.19-.38.62.62,0,0,0-.42-.15A.59.59,0,0,0,132.76,88.3Z" transform="translate(87.29 40.11)"/><path class="cls-11" d="M136.47,88a.87.87,0,0,1,.25.69V90h-.48v-.27a.54.54,0,0,1-.27.22,1,1,0,0,1-.41.07.94.94,0,0,1-.43-.08.65.65,0,0,1-.28-.23.57.57,0,0,1-.1-.34.59.59,0,0,1,.21-.47,1.09,1.09,0,0,1,.69-.18h.56v0a.42.42,0,0,0-.14-.35.58.58,0,0,0-.4-.12,1.13,1.13,0,0,0-.36.06.72.72,0,0,0-.3.16l-.2-.38a1.2,1.2,0,0,1,.41-.19,1.7,1.7,0,0,1,.51-.07A1,1,0,0,1,136.47,88ZM136,89.52a.49.49,0,0,0,.21-.26V89h-.52c-.3,0-.44.1-.44.29a.24.24,0,0,0,.11.22.45.45,0,0,0,.3.08A.74.74,0,0,0,136,89.52Z" transform="translate(87.29 40.11)"/><path class="cls-11" d="M139.73,86.92v3h-.49v-.29a.9.9,0,0,1-.31.24,1.23,1.23,0,0,1-1-.07,1,1,0,0,1-.39-.39,1.11,1.11,0,0,1-.14-.58,1.09,1.09,0,0,1,.14-.58,1.07,1.07,0,0,1,.39-.4,1.2,1.2,0,0,1,.57-.13,1,1,0,0,1,.39.07.84.84,0,0,1,.31.22V86.92Zm-.82,2.53a.63.63,0,0,0,.23-.23.73.73,0,0,0,.08-.36.68.68,0,0,0-.08-.36.76.76,0,0,0-.23-.24.73.73,0,0,0-.33-.08.7.7,0,0,0-.33.08.59.59,0,0,0-.23.24.69.69,0,0,0-.09.36.74.74,0,0,0,.09.36.51.51,0,0,0,.23.23.6.6,0,0,0,.33.09A.63.63,0,0,0,138.91,89.45Z" transform="translate(87.29 40.11)"/><path class="cls-11" d="M142.73,86.92v3h-.49v-.29a.9.9,0,0,1-.31.24,1.23,1.23,0,0,1-1-.07,1,1,0,0,1-.39-.39,1.11,1.11,0,0,1-.14-.58,1.09,1.09,0,0,1,.14-.58,1.07,1.07,0,0,1,.39-.4,1.2,1.2,0,0,1,.57-.13,1,1,0,0,1,.39.07.84.84,0,0,1,.31.22V86.92Zm-.82,2.53a.57.57,0,0,0,.23-.23.74.74,0,0,0,.09-.36.69.69,0,0,0-.09-.36.66.66,0,0,0-.23-.24.72.72,0,0,0-.66,0,.59.59,0,0,0-.23.24.69.69,0,0,0-.09.36.74.74,0,0,0,.09.36.51.51,0,0,0,.23.23.65.65,0,0,0,.66,0Z" transform="translate(87.29 40.11)"/><path class="cls-11" d="M144.86,87.75v.48h-.12a.64.64,0,0,0-.47.17.7.7,0,0,0-.16.5V90h-.51V87.77h.48v.32A.86.86,0,0,1,144.86,87.75Z" transform="translate(87.29 40.11)"/><path class="cls-11" d="M147.51,89H145.8a.6.6,0,0,0,.23.38.82.82,0,0,0,.47.14.85.85,0,0,0,.6-.23l.27.31a.89.89,0,0,1-.37.26,1.36,1.36,0,0,1-.51.09,1.27,1.27,0,0,1-.63-.14,1,1,0,0,1-.42-.4,1.1,1.1,0,0,1-.15-.57,1.08,1.08,0,0,1,.15-.57,1,1,0,0,1,.4-.4,1.1,1.1,0,0,1,.57-.14,1,1,0,0,1,.57.14.92.92,0,0,1,.39.39,1.15,1.15,0,0,1,.14.59ZM146,88.3a.57.57,0,0,0-.2.38H147a.62.62,0,0,0-.2-.38.6.6,0,0,0-.42-.15A.59.59,0,0,0,146,88.3Z" transform="translate(87.29 40.11)"/><path class="cls-11" d="M148.36,89.9a1.15,1.15,0,0,1-.4-.17l.19-.39a1.19,1.19,0,0,0,.36.16,1.39,1.39,0,0,0,.4.06c.31,0,.46-.08.46-.24a.16.16,0,0,0-.12-.16,2.21,2.21,0,0,0-.37-.09,2,2,0,0,1-.44-.09.7.7,0,0,1-.29-.19.47.47,0,0,1-.13-.36.59.59,0,0,1,.26-.5,1.21,1.21,0,0,1,.7-.18,1.73,1.73,0,0,1,.45,0,1.24,1.24,0,0,1,.36.13l-.19.39a1.19,1.19,0,0,0-.62-.16.74.74,0,0,0-.34.06.21.21,0,0,0-.12.18.19.19,0,0,0,.12.18,2.57,2.57,0,0,0,.39.09l.43.09a.75.75,0,0,1,.28.18.52.52,0,0,1,.12.36.56.56,0,0,1-.26.49,1.28,1.28,0,0,1-.72.18A1.81,1.81,0,0,1,148.36,89.9Z" transform="translate(87.29 40.11)"/><path class="cls-11" d="M150.66,89.9a1.15,1.15,0,0,1-.4-.17l.19-.39a1.19,1.19,0,0,0,.36.16,1.39,1.39,0,0,0,.4.06c.31,0,.46-.08.46-.24a.16.16,0,0,0-.12-.16,2.21,2.21,0,0,0-.37-.09,2,2,0,0,1-.44-.09.7.7,0,0,1-.29-.19.47.47,0,0,1-.13-.36.59.59,0,0,1,.26-.5,1.21,1.21,0,0,1,.7-.18,1.73,1.73,0,0,1,.45,0,1.44,1.44,0,0,1,.37.13l-.2.39a1.17,1.17,0,0,0-.62-.16.74.74,0,0,0-.34.06.21.21,0,0,0-.12.18.19.19,0,0,0,.12.18l.39.09.43.09a.75.75,0,0,1,.28.18.52.52,0,0,1,.12.36.56.56,0,0,1-.26.49,1.28,1.28,0,0,1-.72.18A1.81,1.81,0,0,1,150.66,89.9Z" transform="translate(87.29 40.11)"/><path class="cls-12" d="M160.55,90.7l-.47.22c-.23-.54-.47-1.07-.7-1.6l-.88.84V86.59L161.09,89l-1.25.11Z" transform="translate(87.29 40.11)"/><path class="cls-11" d="M112.31,80.38a.31.31,0,0,1,0-.44.34.34,0,0,1,.24-.09.32.32,0,0,1,.23.09.26.26,0,0,1,.09.21.29.29,0,0,1-.09.22.32.32,0,0,1-.23.09A.33.33,0,0,1,112.31,80.38Zm0,.44h.51V83h-.51Z" transform="translate(87.29 40.11)"/><path class="cls-11" d="M115.56,81a.93.93,0,0,1,.25.71V83h-.51V81.82a.6.6,0,0,0-.13-.43.49.49,0,0,0-.38-.15.61.61,0,0,0-.45.17.67.67,0,0,0-.16.49V83h-.51V80.82h.49v.28a.77.77,0,0,1,.31-.22,1.18,1.18,0,0,1,.43-.08A.89.89,0,0,1,115.56,81Z" transform="translate(87.29 40.11)"/><path class="cls-11" d="M117.23,80.71v.13h.59v.41h-.58V83h-.51V81.25h-.36v-.41h.36V80.7a.72.72,0,0,1,.21-.55.77.77,0,0,1,.57-.2.76.76,0,0,1,.46.12l-.14.38a.49.49,0,0,0-.28-.09C117.33,80.36,117.23,80.48,117.23,80.71Z" transform="translate(87.29 40.11)"/><path class="cls-11" d="M118.72,82.88a1,1,0,0,1-.41-.39,1.14,1.14,0,0,1-.15-.58,1.08,1.08,0,0,1,.15-.57,1.05,1.05,0,0,1,.41-.4,1.28,1.28,0,0,1,.59-.14,1.27,1.27,0,0,1,.6.14,1.07,1.07,0,0,1,.57,1,1.14,1.14,0,0,1-.15.58,1,1,0,0,1-.42.39,1.16,1.16,0,0,1-.6.15A1.18,1.18,0,0,1,118.72,82.88Zm1.06-.48a.76.76,0,0,0,0-1,.61.61,0,0,0-.47-.19.6.6,0,0,0-.46.19.76.76,0,0,0,0,1,.6.6,0,0,0,.46.19A.61.61,0,0,0,119.78,82.4Z" transform="translate(87.29 40.11)"/><path class="cls-11" d="M124,80.34a1.72,1.72,0,0,1,.68.63,1.8,1.8,0,0,1,.24.92,1.41,1.41,0,0,1-.21.83.66.66,0,0,1-.57.3.58.58,0,0,1-.33-.09.46.46,0,0,1-.19-.26.84.84,0,0,1-.73.35.91.91,0,0,1-.5-.13.89.89,0,0,1-.35-.37,1.08,1.08,0,0,1-.13-.54,1.07,1.07,0,0,1,.13-.53.87.87,0,0,1,.35-.36.92.92,0,0,1,.5-.14,1,1,0,0,1,.39.08.86.86,0,0,1,.29.21V81H124v1.38a.29.29,0,0,0,.06.21.18.18,0,0,0,.15.07.28.28,0,0,0,.26-.19,1.56,1.56,0,0,0,.08-.55,1.37,1.37,0,0,0-.2-.76,1.29,1.29,0,0,0-.55-.51,1.73,1.73,0,0,0-.81-.18,1.68,1.68,0,0,0-.82.19,1.39,1.39,0,0,0-.56.54,1.55,1.55,0,0,0-.19.78,1.6,1.6,0,0,0,.19.8,1.36,1.36,0,0,0,.55.54,1.64,1.64,0,0,0,.81.19,1.9,1.9,0,0,0,.41,0,1.74,1.74,0,0,0,.38-.14l.11.33a1.59,1.59,0,0,1-.42.14,2.61,2.61,0,0,1-.48,0,2,2,0,0,1-1-.24,1.71,1.71,0,0,1-.69-.67,1.9,1.9,0,0,1-.24-1,1.8,1.8,0,0,1,.25-.95,1.73,1.73,0,0,1,.68-.66,2.27,2.27,0,0,1,2,0Zm-.59,2.11a.64.64,0,0,0,.16-.47.63.63,0,0,0-.16-.46.62.62,0,0,0-.44-.17.58.58,0,0,0-.43.17.65.65,0,0,0-.17.46.64.64,0,0,0,.17.47.55.55,0,0,0,.43.18A.59.59,0,0,0,123.36,82.45Z" transform="translate(87.29 40.11)"/><path class="cls-11" d="M127.62,82.07h-1.71a.6.6,0,0,0,.23.38.75.75,0,0,0,.47.14.81.81,0,0,0,.6-.23l.27.31a.91.91,0,0,1-.37.27,1.36,1.36,0,0,1-.51.09,1.28,1.28,0,0,1-.63-.15,1,1,0,0,1-.42-.39,1.14,1.14,0,0,1-.15-.58,1.1,1.1,0,0,1,.15-.57,1,1,0,0,1,.4-.4,1.2,1.2,0,0,1,.57-.14,1.15,1.15,0,0,1,.57.14.92.92,0,0,1,.39.39,1.15,1.15,0,0,1,.14.59Zm-1.51-.72a.62.62,0,0,0-.2.39h1.23a.62.62,0,0,0-.2-.39.59.59,0,0,0-.42-.14A.6.6,0,0,0,126.11,81.35Z" transform="translate(87.29 40.11)"/><path class="cls-11" d="M131.71,81a1,1,0,0,1,.24.71V83h-.51V81.82a.65.65,0,0,0-.12-.43.46.46,0,0,0-.36-.15.56.56,0,0,0-.42.17.71.71,0,0,0-.15.48V83h-.51V81.82a.6.6,0,0,0-.13-.43.43.43,0,0,0-.36-.15.53.53,0,0,0-.41.17.69.69,0,0,0-.15.48V83h-.51V80.82h.48v.28a.7.7,0,0,1,.31-.22,1.08,1.08,0,0,1,.84,0,.77.77,0,0,1,.3.27,1,1,0,0,1,.34-.27,1.19,1.19,0,0,1,.47-.09A.87.87,0,0,1,131.71,81Z" transform="translate(87.29 40.11)"/><path class="cls-11" d="M134.37,81a.88.88,0,0,1,.26.69V83h-.48v-.27a.59.59,0,0,1-.27.22,1,1,0,0,1-.42.08.93.93,0,0,1-.42-.09.61.61,0,0,1-.29-.23.65.65,0,0,1-.1-.34.6.6,0,0,1,.22-.47,1.15,1.15,0,0,1,.69-.17h.56v0a.47.47,0,0,0-.14-.36.58.58,0,0,0-.4-.12,1.13,1.13,0,0,0-.36.06.86.86,0,0,0-.3.16l-.2-.37a1,1,0,0,1,.41-.2,1.7,1.7,0,0,1,.51-.07A1.06,1.06,0,0,1,134.37,81Zm-.46,1.54a.47.47,0,0,0,.21-.25v-.25h-.53c-.29,0-.44.09-.44.28a.25.25,0,0,0,.11.22.5.5,0,0,0,.31.09A.64.64,0,0,0,133.91,82.57Z" transform="translate(87.29 40.11)"/><path class="cls-11" d="M135.51,80.38a.29.29,0,0,1,0-.44.34.34,0,0,1,.46,0,.26.26,0,0,1,.09.21.29.29,0,0,1-.09.22.32.32,0,0,1-.23.09A.31.31,0,0,1,135.51,80.38Zm0,.44H136V83h-.51Z" transform="translate(87.29 40.11)"/><path class="cls-11" d="M136.86,80h.51v3h-.51Z" transform="translate(87.29 40.11)"/><path class="cls-11" d="M139.73,83a1.43,1.43,0,0,1-.41-.18l.2-.38a1.42,1.42,0,0,0,.35.15,1.44,1.44,0,0,0,.4.06c.31,0,.46-.08.46-.24a.16.16,0,0,0-.11-.16,1.73,1.73,0,0,0-.38-.08,2.51,2.51,0,0,1-.43-.1.58.58,0,0,1-.3-.18.53.53,0,0,1-.12-.37.58.58,0,0,1,.26-.5,1.18,1.18,0,0,1,.69-.18,2.3,2.3,0,0,1,.45,0,1.14,1.14,0,0,1,.37.14l-.2.38a1.17,1.17,0,0,0-.62-.16.64.64,0,0,0-.34.07.19.19,0,0,0-.12.17.19.19,0,0,0,.13.18,2.39,2.39,0,0,0,.38.09,2.51,2.51,0,0,1,.43.1.59.59,0,0,1,.29.18.48.48,0,0,1,.12.35.56.56,0,0,1-.27.49,1.23,1.23,0,0,1-.72.19A2.16,2.16,0,0,1,139.73,83Z" transform="translate(87.29 40.11)"/><path class="cls-11" d="M143.64,80.94a1,1,0,0,1,.4.39,1.21,1.21,0,0,1,.14.58,1.18,1.18,0,0,1-.14.58,1,1,0,0,1-.4.4,1.13,1.13,0,0,1-.56.14.87.87,0,0,1-.7-.3v1.06h-.51v-3h.49v.29a.72.72,0,0,1,.31-.23,1.07,1.07,0,0,1,.41-.08A1.13,1.13,0,0,1,143.64,80.94Zm-.16,1.46a.76.76,0,0,0,0-1,.59.59,0,0,0-.46-.19.73.73,0,0,0-.33.08.59.59,0,0,0-.23.24.74.74,0,0,0-.09.36.69.69,0,0,0,.09.36.59.59,0,0,0,.23.24.73.73,0,0,0,.33.08A.59.59,0,0,0,143.48,82.4Z" transform="translate(87.29 40.11)"/><path class="cls-11" d="M146.4,81a.88.88,0,0,1,.26.69V83h-.48v-.27a.54.54,0,0,1-.27.22,1,1,0,0,1-.42.08.93.93,0,0,1-.42-.09.66.66,0,0,1-.29-.23.64.64,0,0,1-.09-.34.59.59,0,0,1,.21-.47,1.17,1.17,0,0,1,.69-.17h.56v0a.47.47,0,0,0-.14-.36.58.58,0,0,0-.4-.12,1.13,1.13,0,0,0-.36.06.86.86,0,0,0-.3.16l-.2-.37a1,1,0,0,1,.41-.2,1.7,1.7,0,0,1,.51-.07A1,1,0,0,1,146.4,81Zm-.46,1.54a.47.47,0,0,0,.21-.25v-.25h-.52c-.3,0-.44.09-.44.28a.23.23,0,0,0,.11.22.45.45,0,0,0,.3.09A.64.64,0,0,0,145.94,82.57Z" transform="translate(87.29 40.11)"/><path class="cls-11" d="M147.93,82.88a1,1,0,0,1-.42-.39,1.14,1.14,0,0,1-.15-.58,1.08,1.08,0,0,1,.15-.57,1.12,1.12,0,0,1,.41-.4,1.34,1.34,0,0,1,.61-.14,1.14,1.14,0,0,1,.57.13.86.86,0,0,1,.36.37l-.39.23a.6.6,0,0,0-.23-.22.68.68,0,0,0-.31-.08.61.61,0,0,0-.47.19.63.63,0,0,0-.19.49.7.7,0,0,0,.18.5.68.68,0,0,0,.48.18.67.67,0,0,0,.31-.07.72.72,0,0,0,.23-.23l.39.23a.83.83,0,0,1-.37.37,1.13,1.13,0,0,1-.56.14A1.19,1.19,0,0,1,147.93,82.88Z" transform="translate(87.29 40.11)"/><path class="cls-11" d="M152.11,82.07H150.4a.58.58,0,0,0,.24.38.71.71,0,0,0,.47.14.78.78,0,0,0,.59-.23l.27.31a.91.91,0,0,1-.37.27,1.36,1.36,0,0,1-.51.09,1.28,1.28,0,0,1-.63-.15,1,1,0,0,1-.42-.39,1.14,1.14,0,0,1-.15-.58,1.1,1.1,0,0,1,.15-.57,1,1,0,0,1,.4-.4,1.21,1.21,0,0,1,.58-.14,1.13,1.13,0,0,1,.56.14,1,1,0,0,1,.4.39,1.25,1.25,0,0,1,.14.59S152.11,82,152.11,82.07Zm-1.51-.72a.62.62,0,0,0-.2.39h1.23a.62.62,0,0,0-.2-.39.59.59,0,0,0-.41-.14A.61.61,0,0,0,150.6,81.35Z" transform="translate(87.29 40.11)"/><polygon class="cls-9" points="246.71 121.99 244.82 120.54 248.61 120.54 246.71 121.99"/><polygon class="cls-9" points="246.06 121.87 244.53 123.12 244.53 120.69 246.06 121.87"/><polygon class="cls-9" points="246.31 122.06 246.71 122.38 247.14 122.05 248.63 123.29 244.8 123.29 246.31 122.06"/><polygon class="cls-9" points="247.39 121.86 248.9 120.69 248.9 123.12 247.39 121.86"/><circle class="cls-13" cx="110.97" cy="64.31" r="16.92"/><text class="cls-14" transform="translate(98.45 66.63)"><tspan class="cls-15">L</tspan><tspan x="5.5" y="0">ogo</tspan></text></svg>