<svg id="Layer_1" data-name="Layer 1" xmlns="http://www.w3.org/2000/svg" xmlns:xlink="http://www.w3.org/1999/xlink" viewBox="0 0 1890 1080"><defs><style>.cls-1{fill:none;}.cls-2{clip-path:url(#clip-path);}.cls-3{fill:url(#linear-gradient);}.cls-4{fill:#d6d6d6;}.cls-5{fill:#eb2b00;}.cls-6{fill:url(#linear-gradient-2);}.cls-7{fill:url(#linear-gradient-3);}</style><clipPath id="clip-path"><rect class="cls-1" x="-0.32" width="1889.99757" height="1080"/></clipPath><linearGradient id="linear-gradient" x1="-94.55021" y1="1186.18462" x2="1816.0594" y2="-1.82092" gradientUnits="userSpaceOnUse"><stop offset="0" stop-color="#fff"/><stop offset="0.32506" stop-color="#f9f9f9"/><stop offset="0.77832" stop-color="#e6e6e6"/><stop offset="1" stop-color="#dbdbdb"/></linearGradient><linearGradient id="linear-gradient-2" x1="-1809.87137" y1="358.83146" x2="-2916.87281" y2="-902.12498" gradientTransform="matrix(-1, 0, 0, 1, -981.9475, 0)" gradientUnits="userSpaceOnUse"><stop offset="0"/><stop offset="0.1963" stop-color="#0d0d0d"/><stop offset="0.55817" stop-color="#2f2f2f"/><stop offset="1" stop-color="#606060"/></linearGradient><linearGradient id="linear-gradient-3" x1="576.42264" y1="-2507.44803" x2="-530.5788" y2="-3768.40447" gradientTransform="matrix(1, 0, 0, -1, -223.1374, -1687.4321)" xlink:href="#linear-gradient-2"/></defs><title>model</title><g class="cls-2"><rect class="cls-3" x="-67.81818" y="-67.5025" width="2025.00581" height="1214.99419"/><path class="cls-4" d="M505.61442,24.90743C636.895,164.22443,646.2719,435.49389,827.11785,547.35c36.31717,22.463,79.15851,39.69591,124.9811,50.7438h233.1603c91.70351-23.635,172.614-78.0654,215.207-171.307,99.12961-217.01513,0-846.62691,0-846.62691l-1548.576-13.39615L-19.508-127.80788C122.4889-167.99527,374.33274-114.41173,505.61442,24.90743Z"/><path class="cls-5" d="M621.48977,24.90743C752.77037,164.22443,762.14725,435.49389,942.99319,547.35c36.31717,22.463,79.15852,39.69591,124.98111,50.7438h233.1603c91.7035-23.635,172.614-78.0654,215.20694-171.307,99.12961-217.01513,0-846.62691,0-846.62691l-1548.576-13.39615L96.36737-127.80788C238.36424-167.99527,490.20809-114.41173,621.48977,24.90743Z"/><path class="cls-6" d="M742.053,24.90743c131.2806,139.317,144.73617,404.247,321.50343,522.44253,31.1432,20.82334,71.83718,37.70085,119.05426,50.7438h824.95239c148.04578-33.36185,50.09355-91.05541,86.75205-171.307C2193.44583,209.77158,2015.728-419.8402,2015.728-419.8402L88.32881-433.23635l128.6018,305.42847C358.92749-167.99527,610.77241-114.41173,742.053,24.90743Z"/><path class="cls-4" d="M675.595,1153.94134C544.31443,1014.62326,534.93755,743.3538,354.09161,631.49773c-36.31717-22.463-79.15852-39.69483-124.98219-50.74272H-4.0498c-91.7035,23.635-172.61512,78.06431-215.20694,171.30705-99.12961,217.01513,0,846.62582,0,846.62582l1548.576,13.39616-128.60181-305.42847C1058.72056,1346.843,806.87563,1293.2605,675.595,1153.94134Z"/><path class="cls-5" d="M559.71969,1153.94134C428.43909,1014.62326,419.06221,743.3538,238.21626,631.49773c-36.31717-22.463-79.15851-39.69483-124.98218-50.74272H-119.92514c-91.7035,23.635-172.61512,78.06431-215.20695,171.30705-99.12961,217.01513,0,846.62582,0,846.62582l1548.576,13.39616-128.6018-305.42847C942.84521,1346.843,691.00029,1293.2605,559.71969,1153.94134Z"/><path class="cls-7" d="M439.15536,1153.94134c-131.2806-139.31808-144.73508-404.247-321.50342-522.44361C86.50982,610.67439,45.81583,593.79688-1.40124,580.755h-824.9524c-148.04686,33.36077-50.09462,91.05541-86.75313,171.30705-99.12961,217.01513,78.58819,846.62582,78.58819,846.62582L1092.87957,1612.084,964.27885,1306.65557C822.28089,1346.843,570.437,1293.2605,439.15536,1153.94134Z"/></g></svg>